<?xml version="1.0" encoding="UTF-8"?>
<svg xmlns="http://www.w3.org/2000/svg" xmlns:xlink="http://www.w3.org/1999/xlink" id="ppcg-newlogo" width="685" height="734" viewBox="0 0 685 734">
  <g id="half">
    <path fill="#62a065" d="m 319.18114,614.25847 c 0,0 139.09378,70.66125 160.17373,68.42373 l -12.0519,49.76272 c 0,0 2.85405,-21.31101 -73.86653,-62.20339 -30.5558,-16.28637 -74.2553,-55.98306 -74.2553,-55.98306 z" id="stem" />
    <g id="leaves">
      <g id="leaf">
        <path d="m 310.23941,611.53708 c 0,0 -20.8574,26.53893 -58.71232,26.53893 -48.47001,0 -106.51544,-45.19995 -106.51544,-45.19995 0,0 25.99495,0.97799 49.41458,-2.0146 19.94222,-2.54825 35.98639,-9.25806 54.38733,-8.09345 30.71292,1.94385 61.42585,28.76907 61.42585,28.76907 z" fill="#62a065" />
      </g>
      <use xlink:href="#leaf" transform="matrix(0.36365425,0.69280524,0.69280524,-0.36365425,-243.95054,596.96243)" />
    </g>
    <use xlink:href="#leaves" transform="matrix(0.85581863,0.26304464,-0.26304464,0.85581863,101.64805,-31.124544)" />
    <use xlink:href="#leaves" transform="matrix(0.67653508,0.43746294,-0.43746294,0.67653508,184.30774,-37.061398)" />
    <use xlink:href="#leaves" transform="matrix(0.48218175,0.54799803,-0.54799803,0.48218175,257.23692,-27.59619)" />
    <use xlink:href="#leaves" transform="matrix(0.30187835,0.5703854,-0.5703854,0.30187835,298.07119,-6.240956)" />
    <use xlink:href="#leaves" transform="matrix(0.16234382,0.5624549,-0.5624549,0.16234382,329.09554,6.3333735)" />
    <use xlink:href="#leaves" transform="matrix(0.04303939,0.52477036,-0.52303973,0.04314228,349.57309,22.750145)" />
    <use xlink:href="#leaves" transform="matrix(-0.04517833,0.46567277,-0.46567277,-0.04517833,360.81575,35.371355)" />
    <use xlink:href="#leaves" transform="matrix(-0.11505892,0.41614417,-0.41614417,-0.11505892,378.20614,43.530751)" />
    <path fill="#62a065" d="m 197.49576,4.6652531 c 0,0 -97.581564,42.3760599 -77.36546,64.9247879 24.88135,11.663136 77.36546,-64.9247879 77.36546,-64.9247879 z" id="tip" />
    <path fill="#fedc08" d="m 309.46186,81.641948 c 0,0 -38.9869,-4.529794 -63.95519,39.702832 -13.65445,24.18957 -7.48437,52.11562 -7.48437,99.30616 0,37.70694 -36.36393,38.2235 -36.36393,38.2235 l -0.2749,35.81412 c 0,0 36.04185,2.43065 36.04185,32.54487 0,51.88594 -3.61174,81.06238 5.90196,102.86954 19.63237,45.00105 66.13458,43.42033 66.13458,43.42033 l -0.2749,-37.96616 c 0,0 -33.84262,2.23829 -33.84262,-33.60542 0,-52.2332 2.99094,-78.5287 -6.56973,-99.80631 -8.51553,-18.95161 -17.90332,-24.60995 -17.90332,-24.60995 0,0 10.62796,-10.42836 18.94793,-26.03428 6.44374,-12.08665 5.10871,-63.6075 5.10871,-93.80297 0,-40.72632 35.40581,-40.24214 35.40581,-40.24214 z" id="brace" />
  </g>
  <use xlink:href="#half" transform="scale(-1,1) translate(-685)" />
</svg>
